<?xml version="1.0"?>
<svg xmlns="http://www.w3.org/2000/svg" height="512px" viewBox="0 -6 512 512" width="512px" class=""><g><path d="m501.949219 0h-491.898438c-5.550781 0-10.050781 4.5-10.050781 10.050781v211.808594c0 5.550781 4.5 10.050781 10.050781 10.050781h60.597657v257.679688c0 5.550781 4.5 10.050781 10.050781 10.050781h350.632812c5.546875 0 10.046875-4.5 10.046875-10.050781v-257.679688h60.570313c5.550781 0 10.050781-4.5 10.050781-10.050781v-211.808594c0-5.550781-4.5-10.050781-10.050781-10.050781zm-370.472657 371.671875c18.332032 0 33.246094 14.914063 33.246094 33.246094 0 5.550781 4.5 10.050781 10.046875 10.050781h156.769531c5.550782 0 10.050782-4.5 10.050782-10.050781 0-18.332031 14.914062-33.246094 33.246094-33.246094.757812 0 1.601562.039063 2.582031.113281 2.78125.210938 5.542969-.746094 7.597656-2.648437 2.054687-1.902344 3.21875-4.574219 3.21875-7.371094v-59.214844c0-5.550781-4.5-10.050781-10.046875-10.050781-5.550781 0-10.050781 4.5-10.050781 10.050781v49.441407c-22.941407 2.886718-41.394531 20.398437-45.695313 42.875h-138.570312c-4.089844-21.371094-20.976563-38.253907-42.347656-42.34375v-234.78125h122.59375l84.015624.023437 20.003907-.003906v104.011719c0 5.550781 4.5 10.046874 10.050781 10.046874 5.546875 0 10.046875-4.496093 10.046875-10.046874v-104.019532l33.042969-.007812v288.890625c-.402344.050781-.800782.125-1.203125.179687-.496094.070313-.992188.140625-1.484375.21875-.785156.128906-1.5625.273438-2.339844.421875-.453125.085938-.910156.167969-1.359375.261719-.871094.183594-1.734375.390625-2.597656.601562-.34375.085938-.691407.160157-1.035157.25-1.207031.3125-2.402343.652344-3.585937 1.019532-.101563.03125-.195313.070312-.296875.097656-1.078125.339844-2.144531.703125-3.199219 1.085938-.367187.132812-.726562.28125-1.09375.417968-.78125.300782-1.5625.601563-2.335937.925782-.417969.171874-.828125.355468-1.242188.539062-.710937.308594-1.421875.628906-2.121094.957031-.421874.203125-.84375.40625-1.265624.617188-.683594.335937-1.363282.683593-2.039063 1.042969-.40625.21875-.816406.433593-1.222656.65625-.6875.382812-1.371094.777343-2.046875 1.179687-.371094.21875-.738282.433594-1.105469.65625-.757813.46875-1.503906.949219-2.242187 1.441406-.269532.175781-.539063.34375-.804688.527344-1.011719.683594-2.007812 1.390625-2.984375 2.121094-.046875.035156-.089844.070312-.132813.101562-.917968.691407-1.824218 1.402344-2.710937 2.132813-.285156.234375-.5625.480468-.84375.71875-.640625.539062-1.277344 1.085937-1.898437 1.644531-.328126.292969-.648438.59375-.96875.894531-.566407.527344-1.125 1.054688-1.675782 1.597656-.328125.324219-.652344.652344-.976562.980469-.53125.542969-1.054688 1.089844-1.566406 1.644531-.316407.335938-.625.675782-.933594 1.019532-.519532.578125-1.027344 1.167968-1.53125 1.761718-.277344.332032-.5625.660157-.832032.992188-.550781.675781-1.085937 1.359375-1.613281 2.050781-.207031.269531-.417969.53125-.621093.804688-.726563.972656-1.433594 1.960937-2.117188 2.972656-.039062.0625-.078125.125-.121094.1875-.628906.9375-1.242187 1.890625-1.832031 2.859375-.203125.328125-.394531.667969-.59375 1.003906-.417969.707032-.835937 1.421875-1.230469 2.140625-.222656.402344-.433594.808594-.648437 1.214844-.355469.671875-.703125 1.347656-1.042969 2.03125-.210938.429687-.417969.867187-.625 1.304687-.320312.675782-.628906 1.355469-.925781 2.042969-.195313.445313-.386719.886719-.570313 1.332031-.296875.710938-.578125 1.429688-.851562 2.152344-.164063.429688-.332032.855469-.488282 1.289063-.289062.804687-.558593 1.617187-.824218 2.433593-.117188.355469-.242188.707032-.351563 1.066407-.363281 1.179687-.703125 2.367187-1.015625 3.570312-.027344.109375-.050781.222657-.078125.332031-.277343 1.089844-.53125 2.191407-.761719 3.300782-.085937.40625-.15625.816406-.234374 1.226562-.15625.820313-.308594 1.640625-.441407 2.472656-.078125.476563-.140625.957032-.207031 1.4375-.109375.773438-.210938 1.546876-.296875 2.332032-.058594.503906-.105469 1.007812-.152344 1.515625-.035156.375-.082031.746093-.109375 1.121093h-191.664062c-.03125-.375-.078125-.746093-.113282-1.121093-.046874-.507813-.09375-1.011719-.148437-1.515625-.085937-.78125-.1875-1.558594-.296875-2.332032-.066406-.480468-.132812-.960937-.207031-1.4375-.132813-.832031-.285157-1.652343-.445313-2.472656-.078125-.410156-.144531-.820312-.230468-1.226562-.230469-1.109375-.488282-2.210938-.765626-3.300782-.027343-.109374-.046874-.222656-.078124-.332031-.308594-1.203125-.652344-2.390625-1.015626-3.570312-.109374-.359375-.234374-.710938-.347656-1.066407-.265625-.816406-.535156-1.628906-.828125-2.433593-.15625-.433594-.324219-.863281-.488281-1.292969-.273438-.71875-.554688-1.4375-.847656-2.144531-.1875-.449219-.378906-.890625-.570313-1.335938-.300781-.6875-.609375-1.367187-.925781-2.042969-.207031-.4375-.414062-.875-.628906-1.304687-.335938-.683594-.683594-1.359375-1.039063-2.03125-.214843-.40625-.429687-.8125-.648437-1.214844-.398438-.722656-.8125-1.433593-1.234375-2.140625-.195313-.335937-.386719-.671875-.589844-1.003906-.589844-.964844-1.199219-1.914062-1.828125-2.851562-.046875-.0625-.085938-.132813-.128906-.199219-.683594-1.007813-1.390625-1.996094-2.113282-2.96875-.203124-.273438-.414062-.535157-.621093-.800781-.527344-.695313-1.0625-1.382813-1.613281-2.054688-.273438-.332031-.554688-.660156-.832032-.988281-.503906-.597657-1.011718-1.1875-1.53125-1.765625-.308594-.34375-.621094-.683594-.933594-1.019532-.515624-.554687-1.035156-1.101562-1.566406-1.644531-.324218-.328125-.648437-.65625-.980468-.980469-.546876-.542968-1.109376-1.074218-1.671876-1.597656-.324218-.300781-.640624-.601562-.96875-.894531-.625-.558594-1.257812-1.105469-1.898437-1.644531-.285156-.238282-.5625-.484375-.847656-.71875-.890625-.730469-1.792969-1.441406-2.710938-2.132813-.046875-.03125-.085937-.066406-.132812-.101562-.976563-.730469-1.972657-1.4375-2.980469-2.121094-.269531-.183594-.542969-.351563-.8125-.53125-.738281-.488281-1.480469-.972656-2.238281-1.4375-.367188-.222656-.738281-.4375-1.109375-.65625-.675782-.402344-1.355469-.796875-2.042969-1.179687-.40625-.222657-.816406-.441407-1.226563-.65625-.671874-.359376-1.347656-.707032-2.035156-1.046876-.417968-.207031-.84375-.414062-1.265625-.613281-.699219-.332031-1.40625-.648437-2.117187-.960937-.414063-.179688-.828125-.363282-1.246094-.539063-.773438-.320312-1.550781-.625-2.335938-.921875-.363281-.140625-.726562-.285156-1.09375-.417968-1.054687-.382813-2.117187-.746094-3.191406-1.082032-.101562-.03125-.203125-.070312-.304687-.101562-1.183594-.371094-2.378907-.707032-3.585938-1.023438-.34375-.085937-.695312-.164062-1.039062-.246094-.859375-.210937-1.722657-.417968-2.59375-.601562-.449219-.09375-.90625-.175781-1.363281-.265625-.773438-.148437-1.554688-.292969-2.335938-.417969-.496094-.078125-.988281-.152344-1.484375-.222656-.402344-.054688-.800781-.125-1.207031-.175781v-288.894531h30.679687v243.878906c0 5.550781 4.5 10.050781 10.050781 10.050781zm325.78125-253.929687v57.125h-15.878906v-57.125zm-386.609374 57.125h-11.671876v-57.125h11.671876zm20.097656 252.101562c.441406.074219.878906.152344 1.3125.234375.285156.058594.570312.105469.851562.164063 1.792969.375 3.558594.832031 5.292969 1.363281.269531.085937.53125.175781.800781.261719.597656.195312 1.195313.394531 1.789063.605468.300781.109375.605469.222656.90625.335938.558593.210937 1.109375.429687 1.660156.65625.296875.125.589844.246094.882813.371094.585937.25 1.164062.515624 1.742187.789062.234375.109375.472656.214844.710937.332031 1.613282.785157 3.1875 1.640625 4.71875 2.5625.226563.136719.445313.28125.671876.421875.535156.332032 1.066406.671875 1.59375 1.019532.253906.171874.507812.347656.761718.523437.496094.339844.984375.6875 1.464844 1.042969.246094.179687.492188.355468.730469.539062.515625.390625 1.023437.792969 1.523437 1.199219.191406.152344.386719.304687.574219.460937.691406.570313 1.367187 1.15625 2.03125 1.761719.003906 0 .003906.003907.007813.003907.652343.59375 1.289062 1.203124 1.914062 1.828124.183594.183594.367188.371094.546875.558594.441406.449219.878906.90625 1.304687 1.367188.207032.226562.410157.453125.613282.679687.402344.449219.792968.902344 1.179687 1.363281.195313.230469.390625.460938.582031.695313.410157.503906.808594 1.011719 1.199219 1.527344.148438.195312.300781.382812.445313.578125.535156.71875 1.058594 1.449218 1.558594 2.191406.023437.03125.042968.0625.0625.09375.472656.707031.933593 1.421875 1.375 2.148438.144531.234374.28125.46875.421874.703124.316407.535157.628907 1.074219.929688 1.621094.152344.273438.304688.554688.453125.832032.277344.527343.550781 1.054687.8125 1.589843.140625.28125.28125.5625.414063.847657.277343.578124.539062 1.167968.796874 1.757812.101563.234375.210938.46875.3125.707031.347657.828125.679688 1.667969.992188 2.515625.03125.085938.058594.171875.089844.257813.273437.761719.535156 1.53125.78125 2.304687.089844.285156.171875.570313.257812.855469.175782.585937.34375 1.175781.503906 1.769531.085938.328125.167969.65625.25.984375.140626.574219.277344 1.152344.398438 1.730469.074219.328125.144531.65625.210938.988281.125.628907.234374 1.265625.339843 1.90625.046875.273438.097657.546875.136719.824219.136719.894531.25 1.792969.347656 2.699219h-49.257812zm281.28125 52.574219c.09375-.90625.207031-1.804688.34375-2.699219.039062-.277344.089844-.554688.136718-.832031.105469-.636719.21875-1.269531.339844-1.902344.066406-.328125.140625-.660156.210938-.988281.125-.578125.257812-1.152344.398437-1.726563.082031-.332031.167969-.660156.253907-.988281.15625-.589844.328124-1.179688.5-1.761719.085937-.289062.171874-.578125.261718-.867187.242188-.765625.5-1.527344.773438-2.28125.03125-.089844.0625-.183594.09375-.277344.3125-.847656.644531-1.683594.996094-2.511719.101562-.242187.210937-.480469.3125-.71875.257812-.585937.519531-1.167969.792968-1.746093.136719-.289063.277344-.570313.417969-.855469.261719-.53125.53125-1.054688.808594-1.574219.148437-.285156.300781-.570312.457031-.851562.296875-.535157.605469-1.066407.917969-1.597657.144531-.238281.285156-.484375.433593-.722656.433594-.710937.882813-1.410156 1.34375-2.097656.03125-.046875.0625-.097657.09375-.144531.5-.738282 1.019532-1.464844 1.550782-2.179688.152344-.203125.308594-.398438.460937-.601562.390625-.507813.78125-1.007813 1.183594-1.503907.195313-.238281.398437-.476562.597656-.710937.378907-.453125.765625-.902344 1.160157-1.34375.207031-.234375.417968-.464844.628906-.695313.421875-.453125.851562-.902343 1.285156-1.347656.1875-.191406.375-.386719.566406-.578125.613282-.605469 1.234375-1.203125 1.871094-1.785156.019531-.015625.035156-.03125.050781-.046875.660157-.597657 1.335938-1.183594 2.023438-1.753907.195312-.160156.394531-.316406.59375-.476562.492187-.402344.992187-.792969 1.496093-1.179688.246094-.1875.5-.371093.75-.554687.476563-.351563.957032-.691406 1.445313-1.03125.257813-.175781.519531-.355469.78125-.527344.515625-.347656 1.042969-.683593 1.570313-1.011719.230468-.144531.460937-.289062.691406-.429687.757812-.457031 1.523437-.902344 2.304687-1.328125.003907 0 .007813-.003906.007813-.003906.789062-.429688 1.589844-.835938 2.398437-1.230469.238281-.117187.484375-.222656.722657-.339844.574218-.265625 1.148437-.53125 1.730468-.78125.292969-.128906.589844-.25.886719-.371093.546875-.226563 1.101563-.445313 1.65625-.652344.300781-.117188.605469-.230469.914063-.339844.585937-.210938 1.183593-.414062 1.78125-.605469.269531-.085937.535156-.179687.804687-.261719.863281-.265624 1.738281-.519531 2.617187-.746093h.003907c.882812-.226563 1.773437-.429688 2.671875-.617188.28125-.058593.566406-.109375.847656-.164062.4375-.082031.875-.160157 1.3125-.234375v52.574218h-49.253906zm119.875-267.730469h-50.523438v-16.847656h25.929688c5.546875 0 10.046875-4.5 10.046875-10.050782v-77.222656c0-5.546875-4.5-10.046875-10.046875-10.046875h-418.382813c-5.550781 0-10.050781 4.5-10.050781 10.046875v77.222656c0 5.550782 4.5 10.050782 10.050781 10.050782h21.722657v16.847656h-50.550782v-191.714844h471.804688zm0 0" data-original="#000000" class="active-path" data-old_color="#ffffff" fill="#ffffff"/><path d="m68.835938 89.164062c16.625 0 30.148437-13.523437 30.148437-30.144531 0-16.625-13.523437-30.148437-30.148437-30.148437-16.621094 0-30.148438 13.523437-30.148438 30.148437 0 16.621094 13.527344 30.144531 30.148438 30.144531zm0-40.195312c5.542968 0 10.050781 4.507812 10.050781 10.050781 0 5.539063-4.507813 10.046875-10.050781 10.046875-5.539063 0-10.050782-4.507812-10.050782-10.046875 0-5.542969 4.511719-10.050781 10.050782-10.050781zm0 0" data-original="#000000" class="active-path" data-old_color="#ffffff" fill="#ffffff"/><path d="m131.476562 89.164062c16.621094 0 30.144532-13.523437 30.144532-30.144531 0-16.625-13.523438-30.148437-30.144532-30.148437-16.625 0-30.148437 13.523437-30.148437 30.148437 0 16.621094 13.523437 30.144531 30.148437 30.144531zm0-40.195312c5.539063 0 10.046876 4.507812 10.046876 10.050781 0 5.539063-4.507813 10.046875-10.046876 10.046875-5.542968 0-10.050781-4.507812-10.050781-10.046875 0-5.542969 4.507813-10.050781 10.050781-10.050781zm0 0" data-original="#000000" class="active-path" data-old_color="#ffffff" fill="#ffffff"/><path d="m360.417969 68.273438h106.886719c5.550781 0 10.050781-4.5 10.050781-10.050782 0-5.550781-4.5-10.046875-10.050781-10.046875h-106.886719c-5.546875 0-10.046875 4.496094-10.046875 10.046875 0 5.550782 4.5 10.050782 10.046875 10.050782zm0 0" data-original="#000000" class="active-path" data-old_color="#ffffff" fill="#ffffff"/><path d="m311.027344 62.921875c1.578125 3.914063 5.34375 6.292969 9.320312 6.292969 1.253906 0 2.527344-.238282 3.757813-.734375 5.148437-2.078125 7.636719-7.933594 5.558593-13.078125l-.113281-.289063c-2.078125-5.148437-7.9375-7.632812-13.082031-5.558593-5.144531 2.074218-7.636719 7.933593-5.558594 13.078124zm0 0" data-original="#000000" class="active-path" data-old_color="#ffffff" fill="#ffffff"/><path d="m254.09375 166.371094c-44.59375 0-81 35.613281-82.339844 79.890625-.039062.363281-.0625.730469-.0625 1.105469 0 .160156.015625.3125.023438.472656-.003906.3125-.023438.625-.023438.9375 0 45.4375 36.964844 82.40625 82.40625 82.40625 45.4375 0 82.40625-36.96875 82.40625-82.40625s-36.96875-82.40625-82.410156-82.40625zm0 20.097656c30.441406 0 55.835938 21.949219 61.234375 50.847656h-11.054687c-1.515626-4.460937-4.039063-8.550781-7.46875-11.980468-5.882813-5.886719-13.707032-9.125-22.03125-9.125-8.320313 0-16.144532 3.238281-22.03125 9.125-5.882813 5.882812-9.121094 13.707031-9.125 22.03125 0 2.390624-.929688 4.636718-2.621094 6.324218-3.488282 3.492188-9.164063 3.492188-12.652344.003906-1.691406-1.691406-2.621094-3.9375-2.621094-6.332031 0-2.386719.929688-4.632812 2.621094-6.324219 1.691406-1.6875 3.9375-2.621093 6.324219-2.621093 5.550781 0 10.050781-4.496094 10.050781-10.046875 0-5.550782-4.5-10.050782-10.050781-10.050782-7.757813 0-15.050781 3.019532-20.535157 8.507813-3.023437 3.023437-5.292968 6.597656-6.726562 10.492187h-14.542969c5.398438-28.902343 30.792969-50.851562 61.230469-50.851562zm0 124.617188c-31.421875 0-57.472656-23.390626-61.691406-53.671876h15.003906c1.433594 3.894532 3.703125 7.46875 6.722656 10.492188 11.328125 11.324219 29.757813 11.320312 41.082032 0 5.484374-5.488281 8.507812-12.785156 8.503906-20.539062 0-2.953126 1.152344-5.730469 3.242187-7.820313 4.308594-4.3125 11.324219-4.3125 15.636719 0 2.089844 2.089844 3.242188 4.867187 3.242188 7.820313 0 2.953124-1.152344 5.730468-3.242188 7.820312-2.351562 2.351562-5.609375 3.515625-8.929688 3.183594-5.535156-.554688-10.445312 3.476562-10.996093 9-.554688 5.523437 3.476562 10.445312 9 11 1.046875.101562 2.09375.15625 3.136719.15625 8.230468 0 16.113281-3.238282 22.003906-9.128906 3.425781-3.429688 5.953125-7.519532 7.46875-11.980469h11.515625c-4.222657 30.277343-30.273438 53.667969-61.699219 53.667969zm0 0" data-original="#000000" class="active-path" data-old_color="#ffffff" fill="#ffffff"/><path d="m387.5625 258.703125-.113281-.289063c-2.078125-5.148437-7.9375-7.632812-13.082031-5.558593-5.144532 2.074219-7.632813 7.929687-5.558594 13.078125l.117187.285156c1.578125 3.917969 5.34375 6.292969 9.320313 6.292969 1.253906 0 2.527344-.234375 3.757812-.734375 5.148438-2.074219 7.636719-7.929688 5.558594-13.074219zm0 0" data-original="#000000" class="active-path" data-old_color="#ffffff" fill="#ffffff"/></g> </svg>
